<svg width="100%" viewBox="0 0 680 300" xmlns="http://www.w3.org/2000/svg">
<defs>
<linearGradient id="g1" x1="0" y1="0" x2="1" y2="1"><stop offset="0" stop-color="#60AAFF"/><stop offset="1" stop-color="#2563EB"/></linearGradient>
<linearGradient id="g2" x1="0.8" y1="0" x2="0" y2="1"><stop offset="0" stop-color="#93CDFF"/><stop offset="1" stop-color="#3B82F6"/></linearGradient>
<linearGradient id="g3" x1="0" y1="1" x2="1" y2="0"><stop offset="0" stop-color="#2563EB"/><stop offset="0.6" stop-color="#1D4ED8"/><stop offset="1" stop-color="#1E40AF"/></linearGradient>
<linearGradient id="g4" x1="0" y1="0" x2="0.5" y2="1"><stop offset="0" stop-color="#BFDBFE"/><stop offset="1" stop-color="#60A5FA"/></linearGradient>
<linearGradient id="g5" x1="1" y1="0" x2="0" y2="1"><stop offset="0" stop-color="#60A5FA"/><stop offset="0.5" stop-color="#3B82F6"/><stop offset="1" stop-color="#1D4ED8"/></linearGradient>
<linearGradient id="g6" x1="0" y1="0" x2="1" y2="0.8"><stop offset="0" stop-color="#BFDBFE"/><stop offset="1" stop-color="#93C5FD"/></linearGradient>
</defs>
<g transform="translate(340, 150)">
<g transform="translate(-80, -80) scale(1.43)">
<polygon points="0,56 56,0 112,56" fill="url(#g4)"/>
<polygon points="0,56 56,112 56,56" fill="url(#g3)"/>
<polygon points="112,56 56,112 56,56" fill="url(#g5)"/>
<polygon points="56,56 56,112 28,84" fill="url(#g1)"/>
<polygon points="56,56 56,112 84,84" fill="url(#g2)"/>
<polygon points="56,0 28,28 56,56" fill="url(#g6)"/>
<polygon points="56,0 84,28 56,56" fill="url(#g2)"/>
<polygon points="0,56 28,28 28,84" fill="url(#g5)"/>
<polygon points="112,56 84,28 84,84" fill="url(#g1)"/>
</g>
</g>
</svg>
